# xmcd
#
# Track frame offsets:
#	150
#	20406
#	54656
#	106640
#	140931
#	150162
#	167477
#
# Disc length: 3636 seconds
#
# Revision: 1
# Processed by: cddbd v1.5.2PL0 Copyright (c) Steve Scherf et al.
# Submitted via: audiograbber 1.83.01
#
DISCID=4d0e3207
DTITLE=Grateful Dead - 69-04-25 Electric Theatre, Chicago IL
DYEAR=1900
DGENRE=
TTITLE0=Hard To Handle
TTITLE1=Doin' That Rag
TTITLE2=Good Morning Little Schoolgirl
TTITLE3=Morning Dew
TTITLE4=Yellow Dog Story
TTITLE5=Sitting On Top Of The World
TTITLE6=Turn On Your Lovelight
EXTD=
EXTT0=
EXTT1=
EXTT2=
EXTT3=
EXTT4=
EXTT5=
EXTT6=
PLAYORDER=
